<svg width="10" height="10" viewBox="0 0 10 10" fill="none" xmlns="http://www.w3.org/2000/svg">
<path d="M3.94874 9.75416C4.38459 9.75416 4.71409 9.58679 4.93724 9.25207L9.76464 1.97696C9.84484 1.85841 9.90411 1.7416 9.94247 1.62654C9.98082 1.50799 10 1.39467 10 1.28658C10 0.986723 9.8954 0.739164 9.68619 0.543906C9.48047 0.345161 9.22594 0.245789 8.92259 0.245789C8.71339 0.245789 8.53556 0.28763 8.38912 0.371312C8.24616 0.451507 8.11018 0.590977 7.98117 0.789722L3.92782 7.15478L1.89854 4.72278C1.67887 4.46824 1.40342 4.34098 1.07218 4.34098C0.761855 4.34098 0.505579 4.44035 0.303347 4.63909C0.101116 4.83784 0 5.08714 0 5.387C0 5.52299 0.0209205 5.652 0.0627615 5.77403C0.108089 5.89258 0.190028 6.01636 0.308577 6.14537L3.00209 9.32006C3.24965 9.60946 3.5652 9.75416 3.94874 9.75416Z" fill="white"/>
</svg>
