<svg xmlns="http://www.w3.org/2000/svg" aria-hidden="true" style="position:absolute;width:0;height:0;overflow:hidden">
  <defs>
    <symbol id="icon-facebook" viewBox="0 0 32 32">
      <path stroke-linecap="round" stroke-linejoin="round" stroke-width="2" d="M24 2.667h-4a6.67 6.67 0 0 0-6.667 6.667v4h-4v5.333h4v10.667h5.333V18.667h4l1.333-5.333h-5.333v-4A1.334 1.334 0 0 1 20 8h4V2.667z"/>
    </symbol>
    <symbol id="icon-instagram" viewBox="0 0 32 32">
      <path stroke-linecap="round" stroke-linejoin="round" stroke-width="2" d="M22.667 2.667H9.334a6.667 6.667 0 0 0-6.667 6.667v13.333a6.667 6.667 0 0 0 6.667 6.667h13.333a6.667 6.667 0 0 0 6.667-6.667V9.334a6.667 6.667 0 0 0-6.667-6.667z"/>
      <path stroke-linecap="round" stroke-linejoin="round" stroke-width="2" d="M21.333 15.16a5.329 5.329 0 0 1-2.878 5.546 5.337 5.337 0 0 1-6.169-.992 5.33 5.33 0 0 1 1.316-8.505 5.336 5.336 0 0 1 6.228.962 5.328 5.328 0 0 1 1.504 2.989zM23.333 8.667h.013"/>
    </symbol>
    <symbol id="icon-twitter" viewBox="0 0 32 32">
      <path stroke-linecap="round" stroke-linejoin="round" stroke-width="2" d="M30.667 4a14.542 14.542 0 0 1-4.187 2.04 5.975 5.975 0 0 0-6.637-1.661A5.981 5.981 0 0 0 16 10.04v1.333c-2.343.061-4.665-.459-6.759-1.513S4.68 6.297 3.333 4.379c0 0-4.667 12.954 7.333 18.287a15.519 15.519 0 0 1-9.333 2.667C13.333 32 28 25.333 28 10a5.966 5.966 0 0 0-.107-1.107A10.288 10.288 0 0 0 30.666 4z"/>
    </symbol>
    <symbol id="icon-user" viewBox="0 0 32 32">
      <path stroke-linecap="round" stroke-linejoin="round" stroke-width="2.667" d="M26.667 28v-2.667A5.333 5.333 0 0 0 21.334 20H10.667a5.333 5.333 0 0 0-5.333 5.333V28M16 14.667a5.333 5.333 0 1 0 0-10.666 5.333 5.333 0 1 0 0 10.666z"/>
    </symbol>
    <symbol id="icon-check" viewBox="0 0 32 32">
<path d="M12.636 31.213c1.395 0 2.449-0.536 3.163-1.607l15.448-23.28c0.257-0.379 0.446-0.753 0.569-1.121 0.123-0.379 0.184-0.742 0.184-1.088 0-0.96-0.335-1.752-1.004-2.377-0.658-0.636-1.473-0.954-2.444-0.954-0.669 0-1.238 0.134-1.707 0.402-0.457 0.257-0.893 0.703-1.305 1.339l-12.971 20.368-6.494-7.782c-0.703-0.815-1.584-1.222-2.644-1.222-0.993 0-1.813 0.318-2.46 0.954s-0.971 1.434-0.971 2.393c0 0.435 0.067 0.848 0.201 1.238 0.145 0.379 0.407 0.775 0.787 1.188l8.619 10.159c0.792 0.926 1.802 1.389 3.029 1.389z"></path>
</symbol>
  </defs>
</svg>
